<svg id="svg" version="1.1" xmlns="http://www.w3.org/2000/svg" xmlns:xlink="http://www.w3.org/1999/xlink" width="400" height="400" viewBox="0, 0, 400,400"><g id="svgg"><path id="path0" d="M82.667 120.267 C 82.520 120.413,82.400 122.107,82.400 124.031 C 82.400 129.366,82.020 129.600,73.369 129.600 L 66.800 129.600 66.800 131.618 C 66.800 134.421,65.630 135.600,62.851 135.600 C 59.655 135.600,59.600 135.661,59.600 139.196 C 59.600 142.698,59.517 142.784,56.100 142.795 C 55.165 142.798,54.400 142.965,54.400 143.167 C 54.400 143.916,51.678 145.200,50.093 145.200 L 48.481 145.200 48.238 147.100 C 48.104 148.145,47.899 150.890,47.781 153.200 C 47.410 160.489,47.183 160.800,42.248 160.800 L 38.896 160.800 38.648 163.300 C 38.512 164.675,38.289 167.069,38.153 168.621 C 37.832 172.271,37.338 172.924,34.690 173.190 L 32.600 173.400 32.483 182.200 C 32.334 193.446,32.360 193.600,34.411 193.600 C 36.357 193.600,36.479 193.959,36.317 199.200 L 36.200 203.000 34.541 203.121 C 32.754 203.251,32.411 203.747,32.411 206.200 C 32.411 208.664,32.767 209.200,34.404 209.200 C 36.434 209.200,36.400 209.017,36.400 219.901 C 36.400 228.141,36.484 229.430,37.066 230.073 C 37.791 230.874,38.264 234.219,38.652 241.300 L 38.888 245.600 42.416 245.600 C 47.697 245.600,47.352 244.894,48.236 257.500 L 48.495 261.200 50.225 261.200 C 52.795 261.200,54.106 262.477,54.384 265.252 L 54.600 267.400 59.892 267.831 C 66.726 268.388,66.800 268.446,66.800 273.218 L 66.800 276.712 71.100 276.959 C 73.465 277.095,76.390 277.308,77.600 277.433 C 81.487 277.833,82.000 277.391,82.000 273.636 C 82.000 268.610,82.156 268.400,85.901 268.400 C 90.467 268.400,90.800 268.723,90.800 273.161 C 90.800 278.413,89.343 278.000,107.870 278.000 C 126.240 278.000,124.800 278.402,124.800 273.269 C 124.800 268.138,124.117 268.400,137.520 268.400 C 149.831 268.400,149.600 268.449,149.600 265.809 C 149.600 262.558,149.955 262.400,157.249 262.400 C 165.843 262.400,165.200 262.992,165.200 255.075 C 165.200 247.272,165.380 246.800,168.361 246.800 C 171.463 246.800,171.600 246.467,171.600 238.898 L 171.600 232.458 172.654 231.629 C 173.337 231.092,174.294 230.800,175.374 230.800 C 177.872 230.800,178.000 230.504,178.000 224.743 C 178.000 218.916,178.277 218.400,181.409 218.400 C 184.125 218.400,184.000 219.366,184.000 198.400 C 184.000 177.260,184.161 178.400,181.182 178.400 C 178.112 178.400,177.168 176.143,178.588 172.200 C 179.460 169.780,179.366 167.475,178.359 166.563 C 177.129 165.450,176.400 163.834,176.400 162.220 C 176.400 160.837,176.360 160.800,174.843 160.800 C 172.883 160.800,172.799 160.580,172.805 155.467 C 172.813 149.799,172.890 149.600,175.076 149.600 C 177.209 149.600,177.468 148.358,175.410 148.002 C 174.498 147.844,174.145 147.503,173.859 146.506 C 173.561 145.467,173.226 145.166,172.140 144.962 C 171.398 144.823,170.693 144.550,170.572 144.355 C 170.451 144.160,169.688 143.994,168.876 143.987 C 166.775 143.969,165.347 142.603,165.084 140.358 C 164.970 139.391,164.718 137.970,164.524 137.200 L 164.170 135.800 160.449 135.600 C 155.945 135.358,154.800 134.502,154.800 131.378 L 154.800 129.600 151.300 129.594 C 147.207 129.587,145.857 129.075,145.670 127.458 L 145.541 126.334 142.870 126.596 C 139.049 126.970,121.243 127.284,119.716 127.005 L 118.432 126.770 118.316 123.485 L 118.200 120.200 116.432 120.074 C 112.969 119.826,112.800 119.988,112.800 123.561 C 112.800 127.089,112.706 127.189,109.400 127.189 C 106.099 127.189,106.000 127.084,106.000 123.596 C 106.000 121.129,105.869 120.435,105.367 120.243 C 104.502 119.911,83.000 119.933,82.667 120.267 M139.626 128.814 C 140.859 129.474,140.758 133.794,139.500 134.190 C 139.005 134.346,131.670 134.567,123.200 134.681 C 105.521 134.921,106.800 134.587,106.800 138.960 C 106.800 144.097,106.952 144.000,98.857 144.000 C 91.326 144.000,91.200 144.045,91.200 146.698 C 91.200 149.586,90.034 150.400,85.898 150.400 C 81.696 150.400,81.600 150.497,81.600 154.749 C 81.600 159.701,81.762 159.600,73.800 159.600 C 65.524 159.600,66.208 158.849,65.602 168.600 C 64.984 178.546,65.429 177.851,59.455 178.203 C 53.181 178.572,53.600 178.033,53.600 185.723 C 53.600 193.214,53.283 194.000,50.262 194.000 C 47.020 194.000,47.200 192.716,47.200 215.782 C 47.200 231.160,47.081 236.359,46.720 236.720 C 45.889 237.551,38.949 237.363,38.611 236.500 C 37.888 234.658,37.541 175.365,38.220 169.800 C 38.743 165.515,38.656 165.600,42.575 165.600 C 47.165 165.600,47.276 165.388,47.823 155.600 C 48.141 149.913,48.105 150.000,50.179 150.000 C 52.442 150.000,53.200 149.253,53.200 147.020 C 53.200 144.643,53.569 144.468,59.222 144.163 C 65.531 143.823,65.600 143.773,65.600 139.464 C 65.600 134.468,65.710 134.400,73.790 134.400 C 81.070 134.400,81.200 134.352,81.200 131.651 C 81.200 128.133,78.782 128.400,110.688 128.400 C 129.338 128.400,139.114 128.540,139.626 128.814 M155.354 135.149 C 155.909 135.763,156.011 136.574,155.916 139.649 L 155.800 143.400 148.938 143.509 C 140.471 143.644,140.800 143.842,140.800 138.605 C 140.800 134.104,140.146 134.471,148.238 134.432 C 154.045 134.403,154.742 134.473,155.354 135.149 M164.869 144.662 C 165.926 145.619,165.897 149.013,164.826 149.586 C 163.518 150.286,157.982 150.107,157.131 149.338 C 156.399 148.675,156.051 144.882,156.667 144.267 C 157.279 143.655,164.120 143.985,164.869 144.662 M170.977 150.889 C 171.775 152.028,171.823 157.473,171.043 158.500 C 170.340 159.427,167.340 159.451,166.331 158.538 C 165.337 157.638,165.258 151.599,166.229 150.629 C 167.227 149.630,170.210 149.793,170.977 150.889 M125.824 158.587 C 126.353 158.988,127.625 159.179,129.824 159.187 C 133.812 159.203,134.473 159.612,134.776 162.250 L 135.000 164.200 138.200 164.492 C 139.960 164.653,143.059 164.923,145.087 165.092 C 150.244 165.523,150.305 165.615,151.188 174.400 C 151.376 176.270,151.546 177.845,151.565 177.900 C 151.584 177.955,152.397 178.000,153.371 178.000 C 156.129 178.000,156.252 178.287,156.572 185.474 C 156.727 188.953,157.051 192.475,157.290 193.300 L 157.727 194.800 161.231 194.800 C 166.129 194.800,166.000 194.702,166.000 198.419 C 166.000 202.191,166.080 202.124,161.325 202.332 C 156.776 202.532,157.080 201.935,156.813 211.189 C 156.601 218.550,156.596 218.580,155.614 219.069 C 154.718 219.515,154.696 219.585,155.367 219.843 C 156.051 220.105,156.085 220.483,155.823 224.958 C 155.500 230.484,155.305 230.886,153.035 230.720 L 151.400 230.600 151.176 227.000 L 150.951 223.400 150.876 226.900 C 150.773 231.668,150.434 232.000,145.680 232.000 C 141.531 232.000,141.200 232.222,141.200 235.000 C 141.200 237.997,141.193 238.000,133.400 238.000 C 125.225 238.000,125.602 237.779,125.594 242.580 C 125.585 247.857,126.951 247.382,111.417 247.515 C 95.217 247.655,96.425 248.025,96.323 242.886 C 96.266 239.994,96.215 239.665,96.125 241.600 C 95.891 246.597,95.803 246.800,93.862 246.800 C 91.449 246.800,91.200 246.381,91.200 242.328 C 91.200 238.457,91.048 238.663,94.200 238.270 C 95.240 238.140,95.198 238.112,93.887 238.060 C 93.055 238.027,91.750 238.261,90.987 238.580 L 89.600 239.159 89.600 242.547 C 89.600 247.341,89.716 247.200,85.786 247.200 C 81.157 247.200,80.800 246.739,80.800 240.770 C 80.800 238.320,80.627 236.340,80.400 236.200 C 80.180 236.064,80.000 236.233,80.000 236.576 C 80.000 237.056,79.549 237.200,78.049 237.200 C 75.660 237.200,75.110 236.631,75.276 234.330 L 75.400 232.600 77.881 232.600 C 82.740 232.600,79.693 232.044,73.309 231.766 C 63.952 231.358,64.718 233.926,64.529 202.338 L 64.388 178.876 65.394 177.680 C 66.054 176.896,66.400 175.998,66.400 175.068 C 66.400 171.986,66.822 171.600,70.190 171.600 C 73.705 171.600,74.800 170.906,74.800 168.680 C 74.800 166.916,75.416 166.400,77.522 166.400 C 78.818 166.400,79.599 166.136,80.473 165.400 C 81.555 164.490,81.996 164.400,85.398 164.400 C 90.098 164.400,90.400 164.284,90.400 162.483 C 90.400 160.602,91.691 159.200,93.424 159.200 C 94.131 159.200,95.224 158.931,95.854 158.602 C 97.544 157.721,124.661 157.708,125.824 158.587 M177.120 166.480 C 177.384 166.744,177.600 167.788,177.600 168.800 C 177.600 169.812,177.384 170.856,177.120 171.120 C 176.856 171.384,175.812 171.600,174.800 171.600 C 173.788 171.600,172.744 171.384,172.480 171.120 C 171.858 170.498,171.858 167.102,172.480 166.480 C 173.102 165.858,176.498 165.858,177.120 166.480 M200.289 182.900 C 200.196 184.715,199.917 186.920,199.670 187.800 C 198.997 190.189,199.099 201.423,199.812 203.400 C 200.129 204.280,200.391 205.729,200.394 206.620 C 200.404 209.291,199.850 209.200,216.026 209.200 C 233.756 209.200,232.800 208.925,232.800 214.029 L 232.800 217.200 234.400 217.200 L 236.000 217.200 236.000 214.029 C 236.000 210.027,236.753 209.200,240.392 209.200 C 243.570 209.200,244.000 209.755,244.000 213.851 C 244.000 215.862,244.184 217.224,244.498 217.538 C 245.076 218.116,245.071 217.342,244.664 244.264 C 244.497 255.300,244.504 264.418,244.680 264.527 C 244.856 264.636,244.944 262.458,244.876 259.686 C 244.698 252.459,244.514 252.800,248.608 252.800 C 253.619 252.800,253.600 252.770,253.600 260.757 C 253.600 266.185,253.508 267.150,252.967 267.357 C 251.762 267.820,251.178 267.595,250.765 266.508 C 250.309 265.307,249.716 264.802,248.800 264.831 C 248.468 264.842,248.604 265.013,249.106 265.215 C 249.604 265.415,250.186 266.038,250.400 266.600 C 250.957 268.066,251.132 268.087,259.659 267.727 L 267.400 267.400 267.531 266.200 C 267.603 265.540,267.828 264.829,268.031 264.620 C 268.247 264.397,268.400 255.134,268.401 242.220 C 268.401 216.664,268.291 217.497,271.700 217.278 L 273.600 217.156 273.600 213.788 C 273.600 209.220,273.640 209.200,282.800 209.200 C 291.967 209.200,292.000 209.217,292.000 213.810 L 292.000 217.200 293.800 217.200 L 295.600 217.200 295.600 213.810 C 295.600 209.853,296.217 209.200,299.952 209.200 C 302.800 209.200,303.200 209.747,303.200 213.643 C 303.200 215.957,303.384 217.110,303.874 217.857 C 304.492 218.800,304.509 219.597,304.078 227.314 C 303.819 231.949,303.696 235.829,303.804 235.937 C 303.912 236.045,304.000 235.395,304.000 234.493 C 304.000 231.144,304.364 230.800,307.901 230.800 C 312.159 230.800,312.800 231.271,312.800 234.400 C 312.800 237.529,312.159 238.000,307.898 238.000 C 305.032 238.000,304.744 237.926,304.412 237.100 C 304.173 236.504,304.051 238.226,304.051 242.200 C 304.051 246.174,304.173 247.896,304.412 247.300 C 304.745 246.473,305.031 246.400,307.943 246.400 C 313.073 246.400,312.844 245.863,312.711 257.600 L 312.600 267.400 311.600 267.506 C 310.812 267.589,310.473 267.334,310.000 266.306 C 309.670 265.588,309.040 264.941,308.600 264.868 C 307.875 264.749,307.887 264.799,308.725 265.409 C 309.234 265.778,309.825 266.541,310.039 267.103 L 310.428 268.125 321.314 267.872 C 327.301 267.733,332.605 267.504,333.100 267.363 L 334.000 267.107 334.000 243.647 C 334.000 221.515,334.042 220.109,334.746 218.794 L 335.493 217.400 338.946 217.284 L 342.400 217.169 342.400 213.795 C 342.400 209.348,342.644 209.200,350.000 209.200 C 357.361 209.200,357.600 209.345,357.600 213.810 L 357.600 217.200 359.400 217.200 L 361.200 217.200 361.200 213.878 C 361.200 209.119,362.319 208.000,367.079 208.000 L 370.319 208.000 370.598 203.100 C 370.978 196.424,370.985 188.630,370.615 183.700 L 370.307 179.600 285.383 179.600 L 200.459 179.600 200.289 182.900 M164.869 188.262 C 165.716 189.029,165.882 191.958,165.120 192.720 C 164.820 193.020,163.334 193.200,161.163 193.200 C 157.298 193.200,157.200 193.131,157.200 190.400 C 157.200 187.694,157.325 187.600,160.911 187.600 C 163.352 187.600,164.315 187.761,164.869 188.262 M349.511 188.223 C 350.632 189.008,350.772 192.126,349.738 193.269 C 348.759 194.350,239.125 194.418,237.931 193.338 C 236.813 192.325,236.914 189.046,238.089 188.223 C 239.445 187.273,348.155 187.273,349.511 188.223 M370.557 188.233 C 370.691 188.581,370.800 189.736,370.800 190.800 C 370.800 193.985,370.781 194.000,366.780 194.000 C 363.581 194.000,363.186 193.916,362.623 193.111 C 361.656 191.731,361.806 188.981,362.889 188.223 C 364.168 187.326,370.212 187.334,370.557 188.233 M164.826 204.014 C 166.030 204.658,166.007 216.793,164.800 218.000 C 163.861 218.939,158.538 219.178,157.680 218.320 C 157.174 217.814,156.966 205.475,157.443 204.233 C 157.731 203.483,163.513 203.311,164.826 204.014 M149.921 234.251 C 150.109 236.832,149.424 237.254,145.256 237.115 L 141.800 237.000 141.675 235.254 C 141.468 232.374,141.495 232.356,145.893 232.485 L 149.800 232.600 149.921 234.251 M252.977 238.089 C 253.419 238.720,253.600 239.940,253.600 242.289 C 253.600 246.808,253.204 247.200,248.643 247.200 C 244.655 247.200,244.800 247.389,244.800 242.200 C 244.800 236.989,244.630 237.200,248.820 237.200 C 252.019 237.200,252.414 237.284,252.977 238.089 M139.767 238.643 C 140.274 238.837,140.400 239.548,140.400 242.214 C 140.400 246.957,140.594 246.844,132.662 246.710 L 126.200 246.600 126.083 243.032 C 126.019 241.069,126.059 239.224,126.171 238.932 C 126.385 238.375,138.404 238.120,139.767 238.643 M52.674 247.270 C 53.413 247.963,53.600 248.562,53.600 250.227 C 53.600 252.575,53.854 252.800,56.501 252.800 C 59.130 252.800,59.599 253.520,59.606 257.562 C 59.615 262.343,58.993 262.027,69.600 262.650 C 74.646 262.946,74.800 263.046,74.800 266.002 C 74.800 268.054,74.701 268.333,73.900 268.548 C 72.420 268.945,67.606 268.831,66.763 268.380 C 66.331 268.149,64.588 267.834,62.889 267.680 L 59.800 267.400 59.674 265.410 C 59.510 262.800,59.112 262.400,56.683 262.400 C 53.580 262.400,53.200 261.850,53.200 257.362 C 53.200 253.197,53.209 253.211,50.260 252.851 L 48.200 252.600 48.079 250.042 C 48.013 248.635,48.052 247.240,48.167 246.942 C 48.516 246.032,51.595 246.256,52.674 247.270 M124.724 249.930 C 124.939 252.907,125.449 252.800,111.031 252.800 C 96.642 252.800,97.200 252.916,97.200 249.915 L 97.200 247.989 110.900 248.095 L 124.600 248.200 124.724 249.930 M303.691 256.051 C 303.609 263.118,303.670 263.957,304.300 264.451 C 304.918 264.935,304.942 264.926,304.509 264.370 C 304.169 263.934,303.981 261.340,303.900 255.970 L 303.782 248.200 303.691 256.051 M80.386 269.574 C 80.614 269.999,80.800 271.780,80.800 273.531 C 80.800 277.071,80.701 277.200,78.000 277.200 C 75.248 277.200,75.200 277.128,75.200 272.991 C 75.200 268.839,75.171 268.880,78.086 268.832 C 79.561 268.807,80.062 268.968,80.386 269.574 " stroke="none" fill="#fcb64e" fill-rule="evenodd"></path><path id="path1" d="M82.080 119.680 C 81.784 119.976,81.600 121.431,81.600 123.480 C 81.600 128.422,81.636 128.400,73.480 128.400 C 66.102 128.400,66.000 128.438,66.000 131.210 C 66.000 134.347,65.160 134.800,59.354 134.800 C 53.530 134.800,53.600 134.748,53.600 139.080 C 53.600 143.205,53.031 144.000,50.080 144.000 C 47.224 144.000,47.200 144.064,47.200 151.618 C 47.200 159.791,47.317 159.600,42.330 159.600 C 37.840 159.600,36.297 161.925,37.962 166.183 C 38.318 167.092,38.788 164.903,38.796 162.300 L 38.800 160.800 42.200 160.800 C 47.190 160.800,47.409 160.502,47.781 153.200 C 47.899 150.890,48.104 148.145,48.238 147.100 L 48.481 145.200 50.093 145.200 C 51.678 145.200,54.400 143.916,54.400 143.167 C 54.400 142.965,55.165 142.798,56.100 142.795 C 59.517 142.784,59.600 142.698,59.600 139.196 C 59.600 135.661,59.655 135.600,62.851 135.600 C 65.630 135.600,66.800 134.421,66.800 131.618 L 66.800 129.600 73.369 129.600 C 82.020 129.600,82.312 129.416,82.485 123.877 L 82.600 120.200 93.400 120.088 C 107.085 119.945,106.000 119.646,106.000 123.561 C 106.000 127.089,106.094 127.189,109.400 127.189 C 112.706 127.189,112.800 127.089,112.800 123.561 C 112.800 119.988,112.969 119.826,116.432 120.074 L 118.200 120.200 118.316 123.485 L 118.432 126.770 119.716 127.005 C 121.243 127.284,139.049 126.970,142.870 126.596 L 145.541 126.334 145.670 127.458 C 145.857 129.075,147.207 129.587,151.300 129.594 L 154.800 129.600 154.800 131.378 C 154.800 134.502,155.945 135.358,160.449 135.600 L 164.170 135.800 164.524 137.200 C 164.718 137.970,164.970 139.391,165.084 140.358 C 165.347 142.603,166.775 143.969,168.876 143.987 C 169.688 143.994,170.451 144.160,170.572 144.355 C 170.693 144.550,171.398 144.823,172.140 144.962 C 173.226 145.166,173.561 145.467,173.859 146.506 C 174.145 147.503,174.498 147.844,175.410 148.002 C 177.468 148.358,177.209 149.600,175.076 149.600 C 172.890 149.600,172.813 149.799,172.805 155.467 C 172.799 160.580,172.883 160.800,174.843 160.800 C 176.360 160.800,176.400 160.837,176.400 162.220 C 176.400 163.834,177.129 165.450,178.359 166.563 C 179.366 167.475,179.460 169.780,178.588 172.200 C 177.156 176.177,178.111 178.400,181.251 178.400 C 184.150 178.400,184.000 177.310,184.000 198.400 C 184.000 219.366,184.125 218.400,181.409 218.400 C 178.277 218.400,178.000 218.916,178.000 224.743 C 178.000 230.504,177.872 230.800,175.374 230.800 C 174.294 230.800,173.337 231.092,172.654 231.629 L 171.600 232.458 171.600 238.967 C 171.600 246.504,171.475 246.800,168.291 246.800 C 165.390 246.800,165.200 247.310,165.200 255.075 C 165.200 262.992,165.843 262.400,157.249 262.400 C 149.955 262.400,149.600 262.558,149.600 265.809 C 149.600 268.449,149.831 268.400,137.520 268.400 C 124.097 268.400,124.800 268.127,124.800 273.338 C 124.800 278.383,126.203 278.000,107.730 278.000 C 89.309 278.000,90.800 278.432,90.800 273.091 C 90.800 268.733,90.453 268.400,85.901 268.400 C 82.156 268.400,82.000 268.610,82.000 273.636 C 82.000 277.391,81.487 277.833,77.600 277.433 C 76.390 277.308,73.465 277.095,71.100 276.959 L 66.800 276.712 66.800 273.218 C 66.800 268.446,66.726 268.388,59.892 267.831 L 54.600 267.400 54.384 265.252 C 54.106 262.477,52.795 261.200,50.225 261.200 L 48.495 261.200 48.236 257.500 C 47.351 244.884,47.704 245.600,42.371 245.600 L 38.800 245.600 38.800 242.250 C 38.800 238.177,38.425 235.835,37.962 237.019 C 37.501 238.196,37.541 244.742,38.014 245.626 C 38.373 246.296,38.875 246.400,41.760 246.400 C 44.525 246.400,45.271 246.541,46.146 247.229 L 47.200 248.058 47.200 254.567 C 47.200 262.104,47.325 262.400,50.509 262.400 C 52.744 262.400,53.600 263.344,53.600 265.809 C 53.600 268.257,53.924 268.400,59.480 268.400 C 65.818 268.400,66.000 268.538,66.000 273.338 C 66.000 278.072,65.878 278.000,73.870 278.000 C 81.267 278.000,81.600 278.140,81.600 281.251 C 81.600 282.235,81.816 283.256,82.080 283.520 C 82.912 284.352,139.008 284.199,139.684 283.362 C 141.509 281.105,141.983 280.800,143.673 280.800 C 145.157 280.800,145.575 280.589,146.845 279.200 L 148.308 277.600 151.674 277.600 C 155.917 277.600,156.000 277.515,156.000 273.182 C 156.000 268.671,156.268 268.400,160.726 268.400 L 163.990 268.400 167.795 264.595 C 171.378 261.012,171.600 260.693,171.600 259.131 C 171.600 257.591,171.813 257.268,174.600 254.587 L 177.600 251.702 177.600 245.326 C 177.600 237.748,177.838 237.200,181.136 237.200 C 183.894 237.200,184.000 236.977,184.000 231.182 C 184.000 224.834,184.026 224.800,188.851 224.800 C 192.760 224.800,193.200 224.535,193.200 222.174 C 193.200 221.094,193.492 220.137,194.029 219.454 L 194.858 218.400 218.767 218.400 C 241.422 218.400,242.711 218.438,243.338 219.131 C 243.937 219.794,244.000 221.966,244.000 242.051 C 244.000 266.636,243.832 265.239,246.780 265.137 L 248.600 265.074 246.600 264.837 L 244.600 264.600 244.607 250.600 C 244.610 242.900,244.700 232.425,244.807 227.321 C 244.955 220.220,244.883 217.925,244.500 217.541 C 244.182 217.223,244.000 215.854,244.000 213.782 C 244.000 209.739,243.567 209.200,240.322 209.200 C 236.760 209.200,236.000 210.049,236.000 214.029 L 236.000 217.200 234.400 217.200 L 232.800 217.200 232.800 214.029 C 232.800 208.925,233.756 209.200,216.026 209.200 C 199.850 209.200,200.404 209.291,200.394 206.620 C 200.391 205.729,200.129 204.280,199.812 203.400 C 199.099 201.423,198.997 190.189,199.670 187.800 C 199.917 186.920,200.196 184.715,200.289 182.900 L 200.459 179.600 285.383 179.600 L 370.307 179.600 370.615 183.700 C 370.985 188.630,370.978 196.424,370.598 203.100 L 370.319 208.000 367.038 208.000 C 362.311 208.000,361.200 209.127,361.200 213.919 L 361.200 217.200 359.400 217.200 L 357.600 217.200 357.600 213.810 C 357.600 209.345,357.361 209.200,350.000 209.200 C 342.644 209.200,342.400 209.348,342.400 213.795 L 342.400 217.169 338.946 217.284 L 335.493 217.400 334.746 218.794 C 334.042 220.109,334.000 221.516,334.000 243.676 L 334.000 267.164 332.500 267.446 C 331.675 267.601,326.293 267.744,320.541 267.764 C 314.788 267.784,310.164 267.935,310.265 268.100 C 310.365 268.265,316.282 268.400,323.414 268.400 L 336.382 268.400 337.063 267.300 C 338.105 265.617,338.807 265.200,340.596 265.200 C 343.342 265.200,343.200 266.442,343.200 242.374 C 343.200 220.858,343.213 220.491,344.029 219.454 L 344.858 218.400 357.600 218.400 C 368.651 218.400,370.426 218.317,370.971 217.771 C 371.925 216.818,371.925 179.982,370.971 179.029 C 370.404 178.461,361.833 178.400,282.600 178.400 C 203.403 178.400,194.796 178.339,194.229 177.772 C 193.548 177.091,193.276 176.174,193.108 174.000 L 193.000 172.600 189.340 172.400 C 184.813 172.153,184.000 171.607,184.000 168.818 C 184.000 166.481,183.513 166.000,181.149 166.000 C 177.757 166.000,177.515 165.320,177.643 156.183 L 177.751 148.555 170.900 141.677 L 164.050 134.800 160.825 134.800 C 156.864 134.800,156.000 134.196,156.000 131.429 C 156.000 128.813,155.385 128.401,151.471 128.394 C 147.847 128.387,147.744 128.348,146.453 126.500 C 145.644 125.341,145.338 125.200,143.635 125.200 C 141.304 125.200,140.400 124.374,140.400 122.242 C 140.400 118.912,143.175 119.200,111.066 119.200 C 89.428 119.200,82.444 119.316,82.080 119.680 M95.854 158.602 C 95.224 158.931,94.131 159.200,93.424 159.200 C 91.691 159.200,90.400 160.602,90.400 162.483 C 90.400 164.284,90.098 164.400,85.398 164.400 C 81.996 164.400,81.555 164.490,80.473 165.400 C 79.599 166.136,78.818 166.400,77.522 166.400 C 75.416 166.400,74.800 166.916,74.800 168.680 C 74.800 170.906,73.705 171.600,70.190 171.600 C 66.822 171.600,66.400 171.986,66.400 175.068 C 66.400 175.998,66.054 176.896,65.394 177.680 L 64.388 178.876 64.529 202.338 C 64.718 233.926,63.952 231.358,73.309 231.766 C 76.879 231.921,79.943 232.190,80.117 232.362 C 80.292 232.534,80.545 235.505,80.680 238.964 C 80.998 247.101,81.059 247.200,85.786 247.200 C 89.716 247.200,89.600 247.341,89.600 242.548 L 89.600 239.161 90.900 238.596 C 92.117 238.067,91.900 238.030,87.482 238.016 C 81.822 237.997,80.800 237.428,80.800 234.298 C 80.800 232.138,80.284 231.600,78.209 231.600 C 75.717 231.600,74.800 230.750,74.800 228.439 C 74.800 225.632,74.146 225.200,69.891 225.200 C 64.760 225.200,65.200 227.423,65.200 201.493 L 65.200 179.564 66.182 178.582 C 67.067 177.696,67.491 177.600,70.502 177.600 C 74.408 177.600,74.800 177.343,74.800 174.782 C 74.800 172.404,75.622 171.600,78.051 171.600 C 80.317 171.600,80.800 171.099,80.800 168.749 C 80.800 165.531,81.581 165.200,89.174 165.200 C 96.193 165.200,96.400 165.126,96.400 162.609 C 96.400 159.073,95.863 159.200,110.794 159.200 C 125.555 159.200,125.200 159.130,125.200 162.055 C 125.200 165.200,125.199 165.200,132.525 165.200 C 140.328 165.200,140.800 165.380,140.800 168.361 C 140.800 171.168,141.454 171.600,145.709 171.600 C 150.446 171.600,150.400 171.520,150.400 179.809 C 150.400 187.093,150.441 187.200,153.218 187.200 C 156.714 187.200,156.611 186.695,156.505 203.340 C 156.400 219.786,156.528 219.200,153.036 219.200 C 150.543 219.200,150.400 219.514,150.400 225.010 C 150.400 231.274,150.148 231.600,145.303 231.600 C 141.355 231.600,140.800 231.995,140.800 234.806 C 140.800 236.366,140.623 236.879,139.911 237.377 C 139.290 237.812,139.206 238.000,139.631 238.000 C 140.719 238.000,141.200 237.080,141.200 235.000 C 141.200 232.230,141.538 232.000,145.604 232.000 C 150.616 232.000,150.556 232.077,150.800 225.333 L 151.000 219.800 153.295 219.553 C 156.862 219.170,156.800 219.310,156.800 211.611 C 156.800 207.930,156.990 204.374,157.223 203.706 L 157.646 202.493 161.323 202.332 C 166.080 202.124,166.000 202.191,166.000 198.419 C 166.000 194.702,166.129 194.800,161.231 194.800 L 157.727 194.800 157.290 193.300 C 157.051 192.475,156.727 188.953,156.572 185.474 C 156.252 178.287,156.129 178.000,153.371 178.000 C 152.397 178.000,151.584 177.955,151.565 177.900 C 151.546 177.845,151.376 176.270,151.188 174.400 C 150.305 165.615,150.244 165.523,145.087 165.092 C 143.059 164.923,139.960 164.653,138.200 164.492 L 135.000 164.200 134.776 162.250 C 134.473 159.612,133.812 159.203,129.824 159.187 C 127.625 159.179,126.353 158.988,125.824 158.587 C 124.661 157.708,97.544 157.721,95.854 158.602 M37.293 171.200 C 36.905 171.821,36.360 172.000,34.859 172.000 C 31.343 172.000,31.600 169.665,31.600 201.651 C 31.600 232.741,31.420 230.800,34.298 230.800 C 35.634 230.800,36.276 231.039,37.070 231.834 L 38.104 232.867 37.821 231.734 C 37.665 231.110,37.282 230.316,36.969 229.969 C 36.511 229.460,36.400 227.496,36.400 219.901 C 36.400 209.017,36.434 209.200,34.404 209.200 C 32.767 209.200,32.411 208.664,32.411 206.200 C 32.411 203.747,32.754 203.251,34.541 203.121 L 36.200 203.000 36.317 199.200 C 36.479 193.959,36.357 193.600,34.411 193.600 C 32.360 193.600,32.334 193.446,32.483 182.200 L 32.600 173.400 34.690 173.190 C 36.745 172.983,37.956 172.142,37.987 170.900 C 38.005 170.213,37.874 170.269,37.293 171.200 M274.700 209.829 C 273.634 210.407,273.600 210.531,273.600 213.791 L 273.600 217.156 271.700 217.278 C 268.291 217.497,268.401 216.664,268.401 242.220 C 268.400 255.134,268.247 264.397,268.031 264.620 C 267.828 264.829,267.603 265.540,267.531 266.200 L 267.400 267.400 259.600 267.731 C 253.615 267.985,251.614 267.947,251.000 267.567 C 250.279 267.120,250.254 267.137,250.749 267.736 C 251.227 268.315,252.336 268.400,259.382 268.400 L 267.466 268.400 268.752 266.800 C 269.938 265.325,270.191 265.200,272.005 265.200 C 274.930 265.200,274.800 266.296,274.800 241.688 C 274.800 220.918,274.840 219.688,275.531 219.062 C 276.180 218.475,277.717 218.400,289.102 218.400 L 301.942 218.400 302.771 219.454 C 303.519 220.404,303.607 221.101,303.667 226.554 L 303.734 232.600 304.120 225.710 C 304.462 219.593,304.432 218.709,303.853 217.824 C 303.387 217.114,303.200 215.915,303.200 213.643 C 303.200 209.747,302.800 209.200,299.952 209.200 C 296.217 209.200,295.600 209.853,295.600 213.810 L 295.600 217.200 293.800 217.200 L 292.000 217.200 292.000 213.810 C 292.000 210.461,291.986 210.413,290.820 209.810 C 289.135 208.939,276.313 208.954,274.700 209.829 M303.762 242.200 C 303.762 245.720,303.824 247.106,303.898 245.281 C 303.972 243.456,303.972 240.576,303.897 238.881 C 303.822 237.186,303.761 238.680,303.762 242.200 M125.680 238.480 C 125.381 238.779,125.200 240.262,125.200 242.418 C 125.200 247.550,126.247 247.200,110.898 247.200 L 98.058 247.200 97.229 246.146 C 96.455 245.162,96.400 245.148,96.400 245.932 C 96.400 247.532,97.388 247.636,111.417 247.515 C 126.951 247.382,125.585 247.857,125.594 242.580 C 125.598 240.305,125.778 238.782,126.080 238.480 C 126.344 238.216,126.470 238.000,126.360 238.000 C 126.250 238.000,125.944 238.216,125.680 238.480 M303.968 264.500 C 304.333 264.981,305.051 265.200,306.268 265.200 C 307.668 265.200,308.243 265.421,309.019 266.258 C 309.559 266.841,310.000 267.124,310.000 266.887 C 310.000 265.968,307.889 264.800,306.226 264.800 C 305.310 264.800,304.308 264.575,303.999 264.300 C 303.522 263.875,303.518 263.904,303.968 264.500 M249.402 266.002 C 249.802 266.444,250.215 266.718,250.321 266.612 C 250.590 266.343,249.592 265.200,249.089 265.200 C 248.862 265.200,249.003 265.561,249.402 266.002 " stroke="none" fill="#f48444" fill-rule="evenodd"></path><path id="path2" d="M81.862 129.131 C 81.454 129.583,81.200 130.549,81.200 131.651 C 81.200 134.352,81.070 134.400,73.790 134.400 C 65.710 134.400,65.600 134.468,65.600 139.464 C 65.600 143.773,65.531 143.823,59.222 144.163 C 53.569 144.468,53.200 144.643,53.200 147.020 C 53.200 149.253,52.442 150.000,50.179 150.000 C 48.105 150.000,48.141 149.913,47.823 155.600 C 47.276 165.388,47.165 165.600,42.575 165.600 C 38.656 165.600,38.743 165.515,38.220 169.800 C 37.541 175.365,37.888 234.658,38.611 236.500 C 38.949 237.363,45.889 237.551,46.720 236.720 C 47.081 236.359,47.200 231.160,47.200 215.782 C 47.200 192.716,47.020 194.000,50.262 194.000 C 53.283 194.000,53.600 193.214,53.600 185.723 C 53.600 178.033,53.181 178.572,59.455 178.203 C 65.429 177.851,64.984 178.546,65.602 168.600 C 66.208 158.849,65.524 159.600,73.800 159.600 C 81.762 159.600,81.600 159.701,81.600 154.749 C 81.600 150.497,81.696 150.400,85.898 150.400 C 90.034 150.400,91.200 149.586,91.200 146.698 C 91.200 144.045,91.326 144.000,98.857 144.000 C 106.952 144.000,106.800 144.097,106.800 138.960 C 106.800 134.587,105.521 134.921,123.200 134.681 C 131.670 134.567,139.005 134.346,139.500 134.190 C 140.758 133.794,140.859 129.474,139.626 128.814 C 138.042 127.966,82.641 128.271,81.862 129.131 M141.300 134.665 C 140.950 134.806,140.800 135.989,140.800 138.605 C 140.800 143.842,140.471 143.644,148.938 143.509 L 155.800 143.400 155.916 139.649 C 156.082 134.252,156.288 134.392,148.238 134.432 C 144.697 134.449,141.575 134.554,141.300 134.665 M156.667 144.267 C 156.051 144.882,156.399 148.675,157.131 149.338 C 157.982 150.107,163.518 150.286,164.826 149.586 C 165.897 149.013,165.926 145.619,164.869 144.662 C 164.120 143.985,157.279 143.655,156.667 144.267 M166.229 150.629 C 165.258 151.599,165.337 157.638,166.331 158.538 C 167.340 159.451,170.340 159.427,171.043 158.500 C 171.823 157.473,171.775 152.028,170.977 150.889 C 170.210 149.793,167.227 149.630,166.229 150.629 M172.480 166.480 C 171.858 167.102,171.858 170.498,172.480 171.120 C 172.744 171.384,173.788 171.600,174.800 171.600 C 175.812 171.600,176.856 171.384,177.120 171.120 C 177.384 170.856,177.600 169.812,177.600 168.800 C 177.600 167.788,177.384 166.744,177.120 166.480 C 176.498 165.858,173.102 165.858,172.480 166.480 M157.443 188.233 C 157.309 188.581,157.200 189.556,157.200 190.400 C 157.200 193.131,157.298 193.200,161.163 193.200 C 163.334 193.200,164.820 193.020,165.120 192.720 C 165.882 191.958,165.716 189.029,164.869 188.262 C 163.831 187.323,157.801 187.300,157.443 188.233 M238.089 188.223 C 236.914 189.046,236.813 192.325,237.931 193.338 C 239.125 194.418,348.759 194.350,349.738 193.269 C 350.772 192.126,350.632 189.008,349.511 188.223 C 348.155 187.273,239.445 187.273,238.089 188.223 M362.889 188.223 C 361.806 188.981,361.656 191.731,362.623 193.111 C 363.186 193.916,363.581 194.000,366.780 194.000 C 370.781 194.000,370.800 193.985,370.800 190.800 C 370.800 187.643,370.750 187.600,367.046 187.600 C 364.736 187.600,363.518 187.782,362.889 188.223 M157.443 204.233 C 156.966 205.475,157.174 217.814,157.680 218.320 C 158.538 219.178,163.861 218.939,164.800 218.000 C 166.007 216.793,166.030 204.658,164.826 204.014 C 163.513 203.311,157.731 203.483,157.443 204.233 M151.256 220.132 C 150.951 220.500,150.905 222.193,151.107 225.632 L 151.400 230.600 153.035 230.720 C 154.022 230.792,154.840 230.634,155.100 230.320 C 155.827 229.443,156.226 220.389,155.557 219.965 C 154.699 219.421,151.751 219.536,151.256 220.132 M304.390 231.826 C 302.869 235.826,304.106 238.000,307.901 238.000 C 312.159 238.000,312.800 237.529,312.800 234.400 C 312.800 231.271,312.159 230.800,307.901 230.800 C 304.919 230.800,304.763 230.846,304.390 231.826 M75.484 232.649 C 75.015 233.118,75.164 236.204,75.680 236.720 C 77.731 238.771,80.779 236.697,80.335 233.552 C 80.199 232.590,76.274 231.859,75.484 232.649 M141.768 232.940 C 141.648 233.253,141.606 234.294,141.675 235.254 L 141.800 237.000 145.256 237.115 C 149.424 237.254,150.109 236.832,149.921 234.251 L 149.800 232.600 145.893 232.485 C 142.807 232.395,141.940 232.490,141.768 232.940 M245.043 237.833 C 244.909 238.181,244.800 240.146,244.800 242.200 C 244.800 247.389,244.655 247.200,248.643 247.200 C 253.204 247.200,253.600 246.808,253.600 242.289 C 253.600 237.505,253.313 237.200,248.820 237.200 C 245.966 237.200,245.239 237.322,245.043 237.833 M91.700 238.656 C 91.024 238.941,91.007 245.647,91.680 246.320 C 91.944 246.584,92.926 246.800,93.862 246.800 C 95.878 246.800,96.131 246.137,95.923 241.400 L 95.800 238.600 94.000 238.522 C 93.010 238.479,91.975 238.539,91.700 238.656 M126.171 238.932 C 126.059 239.224,126.019 241.069,126.083 243.032 L 126.200 246.600 132.662 246.710 C 140.594 246.844,140.400 246.957,140.400 242.214 C 140.400 239.548,140.274 238.837,139.767 238.643 C 138.404 238.120,126.385 238.375,126.171 238.932 M48.167 246.942 C 48.052 247.240,48.013 248.635,48.079 250.042 L 48.200 252.600 50.260 252.851 C 53.209 253.211,53.200 253.197,53.200 257.362 C 53.200 261.850,53.580 262.400,56.683 262.400 C 59.112 262.400,59.510 262.800,59.674 265.410 L 59.800 267.400 62.889 267.680 C 64.588 267.834,66.331 268.149,66.763 268.380 C 67.606 268.831,72.420 268.945,73.900 268.548 C 74.701 268.333,74.800 268.054,74.800 266.002 C 74.800 263.046,74.646 262.946,69.600 262.650 C 58.993 262.027,59.615 262.343,59.606 257.562 C 59.599 253.520,59.130 252.800,56.501 252.800 C 53.854 252.800,53.600 252.575,53.600 250.227 C 53.600 248.562,53.413 247.963,52.674 247.270 C 51.595 246.256,48.516 246.032,48.167 246.942 M304.390 247.426 C 303.777 249.038,303.884 263.806,304.512 264.327 C 304.794 264.561,306.009 264.808,307.212 264.876 C 309.245 264.991,309.443 265.093,310.000 266.306 C 310.473 267.334,310.812 267.589,311.600 267.506 L 312.600 267.400 312.711 257.600 C 312.844 245.863,313.072 246.400,307.946 246.400 C 304.916 246.400,304.763 246.444,304.390 247.426 M97.200 249.915 C 97.200 252.916,96.642 252.800,111.031 252.800 C 125.449 252.800,124.939 252.907,124.724 249.930 L 124.600 248.200 110.900 248.095 L 97.200 247.989 97.200 249.915 M244.992 253.700 C 244.869 254.195,244.821 256.850,244.884 259.600 L 245.000 264.600 246.800 264.705 C 249.739 264.878,250.292 265.115,250.739 266.398 C 251.153 267.584,251.729 267.832,252.967 267.357 C 254.043 266.944,253.895 254.695,252.800 253.600 C 251.527 252.327,245.313 252.406,244.992 253.700 M75.700 269.065 C 75.350 269.206,75.200 270.386,75.200 272.991 C 75.200 277.128,75.248 277.200,78.000 277.200 C 80.701 277.200,80.800 277.071,80.800 273.531 C 80.800 269.051,79.202 267.652,75.700 269.065 " stroke="none" fill="#fcecb4" fill-rule="evenodd"></path><path id="path3" d="M76.667 108.267 C 76.520 108.413,76.400 110.479,76.400 112.858 L 76.400 117.183 68.700 117.291 L 61.000 117.400 60.883 120.500 L 60.766 123.600 54.583 123.600 L 48.400 123.600 48.400 128.200 L 48.400 132.800 45.450 132.800 L 42.500 132.800 42.250 134.050 C 42.113 134.738,42.000 136.178,42.000 137.250 L 42.000 139.200 39.000 139.200 L 36.000 139.200 36.000 146.987 L 36.000 154.775 31.300 154.887 L 26.600 155.000 26.490 161.100 L 26.379 167.200 23.390 167.200 L 20.400 167.200 20.400 201.600 L 20.400 236.000 23.391 236.000 L 26.383 236.000 26.491 243.700 L 26.600 251.400 31.300 251.513 L 36.000 251.625 36.000 257.813 L 36.000 264.000 39.000 264.000 L 42.000 264.000 42.000 267.774 C 42.000 273.700,41.911 273.600,47.190 273.600 L 51.600 273.600 51.600 278.200 L 51.600 282.800 57.783 282.800 L 63.966 282.800 64.083 285.900 L 64.200 289.000 70.283 289.110 L 76.365 289.221 76.483 292.110 L 76.600 295.000 110.900 295.102 L 145.200 295.204 145.200 293.602 L 145.200 292.000 150.000 292.000 L 154.800 292.000 154.800 290.600 L 154.800 289.200 157.800 289.200 L 160.800 289.200 160.800 284.400 L 160.800 279.600 165.600 279.600 L 170.400 279.600 170.400 278.024 C 170.400 276.492,170.442 276.445,171.900 276.324 C 173.263 276.211,173.411 276.084,173.524 274.924 C 173.631 273.812,173.812 273.631,174.924 273.524 C 176.084 273.411,176.211 273.263,176.324 271.900 C 176.445 270.442,176.492 270.400,178.024 270.400 C 179.596 270.400,179.600 270.396,179.600 268.800 L 179.600 267.200 181.200 267.200 L 182.800 267.200 182.800 262.600 L 182.800 258.000 184.750 258.000 C 185.823 258.000,187.263 257.887,187.950 257.750 L 189.200 257.500 189.200 249.750 L 189.200 242.000 192.200 242.000 L 195.200 242.000 195.200 235.800 L 195.200 229.600 214.000 229.600 L 232.800 229.600 232.800 248.400 L 232.800 267.200 234.383 267.200 L 235.966 267.200 236.083 270.300 L 236.200 273.400 237.700 273.524 C 239.119 273.642,239.200 273.723,239.200 275.024 C 239.200 276.323,239.276 276.400,240.565 276.400 C 241.845 276.400,241.946 276.499,242.200 278.000 L 242.470 279.600 259.435 279.600 L 276.400 279.600 276.400 278.000 L 276.400 276.400 278.000 276.400 C 279.557 276.400,279.600 276.363,279.600 275.024 C 279.600 273.723,279.681 273.642,281.100 273.524 L 282.600 273.400 282.717 270.300 L 282.834 267.200 284.417 267.200 L 286.000 267.200 286.000 248.400 L 286.000 229.600 289.000 229.600 L 292.000 229.600 292.000 247.150 C 292.000 267.449,291.977 267.200,293.850 267.200 L 295.200 267.200 295.200 270.157 C 295.200 273.314,295.385 273.600,297.433 273.600 C 298.272 273.600,298.400 273.786,298.400 275.000 C 298.400 276.367,298.438 276.400,300.000 276.400 L 301.600 276.400 301.600 278.000 L 301.600 279.600 323.400 279.600 L 345.200 279.600 345.200 278.000 L 345.200 276.400 346.800 276.400 C 348.357 276.400,348.400 276.363,348.400 275.024 C 348.400 273.723,348.481 273.642,349.900 273.524 L 351.400 273.400 351.516 270.323 L 351.633 267.246 353.116 267.123 L 354.600 267.000 354.704 248.300 L 354.808 229.600 365.604 229.600 L 376.400 229.600 376.400 228.000 L 376.400 226.400 378.000 226.400 C 379.557 226.400,379.600 226.363,379.600 225.024 C 379.600 223.723,379.681 223.642,381.100 223.524 L 382.600 223.400 382.703 198.500 L 382.806 173.600 381.203 173.600 L 379.600 173.600 379.600 172.000 L 379.600 170.400 378.000 170.400 L 376.400 170.400 376.400 168.800 L 376.400 167.200 287.417 167.200 L 198.434 167.200 198.317 164.100 L 198.200 161.000 193.709 160.887 L 189.217 160.774 189.109 153.087 L 189.000 145.400 185.900 145.283 L 182.800 145.166 182.800 140.583 L 182.800 136.000 181.200 136.000 L 179.600 136.000 179.600 134.400 L 179.600 132.800 178.000 132.800 L 176.400 132.800 176.400 131.200 C 176.400 129.638,176.367 129.600,175.000 129.600 C 173.733 129.600,173.600 129.493,173.600 128.480 C 173.600 127.059,172.941 126.400,171.520 126.400 C 170.507 126.400,170.400 126.267,170.400 125.000 L 170.400 123.600 165.600 123.600 L 160.800 123.600 160.800 120.400 L 160.800 117.200 157.824 117.200 L 154.848 117.200 154.724 115.700 L 154.600 114.200 149.900 114.087 L 145.200 113.975 145.200 110.987 L 145.200 108.000 111.067 108.000 C 92.293 108.000,76.813 108.120,76.667 108.267 M140.218 118.982 C 140.959 119.723,141.200 120.390,141.200 121.702 C 141.200 123.907,141.713 124.400,144.004 124.400 C 145.989 124.400,146.676 124.786,147.737 126.500 C 148.395 127.563,148.536 127.600,151.878 127.600 C 156.125 127.600,156.800 128.036,156.800 130.782 C 156.800 133.320,157.208 133.600,160.906 133.600 C 164.482 133.600,165.334 133.926,166.215 135.629 C 166.558 136.292,167.260 137.027,167.775 137.261 C 168.290 137.496,168.900 138.101,169.130 138.606 C 169.360 139.111,170.085 139.841,170.740 140.228 C 171.396 140.615,172.117 141.338,172.342 141.833 C 172.568 142.328,173.257 142.975,173.873 143.270 C 174.489 143.566,175.234 144.311,175.529 144.926 C 175.824 145.541,176.489 146.206,177.008 146.403 C 178.634 147.021,178.800 147.940,178.800 156.294 C 178.800 165.210,178.797 165.200,181.549 165.200 C 183.978 165.200,184.800 166.004,184.800 168.382 C 184.800 170.943,185.192 171.200,189.098 171.200 C 193.234 171.200,194.400 172.014,194.400 174.902 C 194.400 175.858,194.616 176.856,194.880 177.120 C 195.250 177.490,215.417 177.600,283.218 177.600 L 371.076 177.600 371.838 178.442 C 372.921 179.640,372.913 216.557,371.829 218.212 L 371.182 219.200 358.271 219.200 C 348.762 219.200,345.234 219.326,344.880 219.680 C 344.518 220.042,344.400 225.589,344.400 242.191 C 344.400 267.231,344.558 266.000,341.351 266.000 C 339.358 266.000,338.000 266.548,338.000 267.352 C 338.000 269.283,337.150 269.400,323.063 269.400 L 309.810 269.400 308.838 267.900 C 307.928 266.496,307.738 266.400,305.864 266.400 C 302.134 266.400,302.400 268.229,302.400 242.618 C 302.400 225.684,302.282 220.042,301.920 219.680 C 301.234 218.994,276.766 218.994,276.080 219.680 C 275.718 220.042,275.600 225.589,275.600 242.191 C 275.600 267.331,275.777 266.000,272.439 266.000 C 270.493 266.000,269.626 266.542,269.071 268.106 C 268.630 269.350,266.917 269.600,258.850 269.600 C 250.428 269.600,250.353 269.584,249.063 267.500 C 248.476 266.553,248.118 266.399,246.491 266.394 C 242.540 266.381,242.707 267.498,242.847 242.056 C 242.914 230.032,242.830 219.971,242.660 219.698 C 242.222 218.988,195.590 218.970,194.880 219.680 C 194.616 219.944,194.400 220.942,194.400 221.898 C 194.400 224.786,193.234 225.600,189.098 225.600 C 184.730 225.600,184.800 225.503,184.800 231.549 C 184.800 237.481,184.544 238.000,181.618 238.000 C 178.855 238.000,178.800 238.139,178.800 245.061 C 178.800 251.435,178.486 252.992,177.112 253.428 C 176.690 253.562,176.015 254.213,175.612 254.876 C 175.210 255.538,174.322 256.419,173.640 256.834 C 172.545 257.500,172.400 257.801,172.400 259.414 C 172.400 261.192,172.297 261.342,168.420 265.220 L 164.439 269.200 161.100 269.200 C 156.886 269.200,156.800 269.289,156.800 273.618 C 156.800 278.211,156.476 278.526,151.464 278.800 C 147.934 278.993,147.789 279.039,147.271 280.122 C 146.653 281.417,145.392 282.000,143.213 282.000 C 141.884 282.000,141.569 282.187,140.853 283.400 L 140.027 284.800 111.145 284.800 C 78.387 284.800,80.800 285.058,80.800 281.552 C 80.800 278.925,80.448 278.800,73.071 278.800 C 65.063 278.800,65.082 278.812,64.800 273.537 L 64.600 269.800 59.313 269.600 C 53.036 269.363,52.715 269.181,52.404 265.690 L 52.200 263.400 49.910 263.196 C 46.287 262.873,46.234 262.758,46.000 254.687 L 45.800 247.800 42.140 247.600 C 36.728 247.304,36.800 247.413,36.800 239.571 C 36.800 231.948,36.815 232.000,34.580 232.000 C 33.344 232.000,32.557 231.741,31.844 231.100 L 30.842 230.200 30.606 201.697 L 30.370 173.194 31.367 172.197 C 32.123 171.440,32.783 171.200,34.102 171.200 C 36.668 171.200,36.800 170.913,36.800 165.320 C 36.800 158.986,36.941 158.800,41.720 158.800 C 46.149 158.800,46.000 159.052,46.000 151.574 C 46.000 143.981,46.331 143.200,49.549 143.200 C 52.088 143.200,52.400 142.779,52.400 139.346 C 52.400 134.139,52.367 134.164,59.800 133.700 L 64.600 133.400 64.708 132.000 C 65.045 127.634,65.109 127.600,72.980 127.600 C 80.658 127.600,80.269 127.836,80.459 123.065 C 80.683 117.458,77.428 118.000,110.862 118.000 L 139.236 118.000 140.218 118.982 M98.100 160.265 C 97.821 160.377,97.600 161.149,97.600 162.007 C 97.600 165.844,97.395 165.942,88.578 166.324 L 82.200 166.600 81.992 168.667 C 81.710 171.466,80.816 172.400,78.418 172.400 C 76.126 172.400,75.600 172.892,75.600 175.036 C 75.600 177.942,74.729 178.565,70.337 178.800 L 66.600 179.000 66.600 201.600 L 66.600 224.200 70.192 224.317 C 74.678 224.463,75.600 225.095,75.600 228.027 C 75.600 230.174,75.889 230.400,78.633 230.400 C 81.008 230.400,82.000 231.392,82.000 233.767 C 82.000 236.940,81.659 236.800,89.381 236.800 C 97.814 236.800,97.597 236.673,97.606 241.631 C 97.615 246.429,96.353 246.027,111.027 245.906 L 123.800 245.800 124.001 241.919 C 124.267 236.779,123.843 237.039,132.319 236.800 L 139.400 236.600 139.651 234.263 C 140.007 230.949,140.444 230.640,145.112 230.400 L 149.000 230.200 149.200 224.759 C 149.437 218.313,149.554 218.086,152.733 217.919 L 155.000 217.800 155.330 206.474 C 155.512 200.245,155.512 193.585,155.330 191.674 L 155.000 188.200 153.003 188.074 C 149.822 187.874,149.760 187.737,149.441 180.175 C 149.084 171.732,149.451 172.400,145.173 172.400 C 140.830 172.400,140.000 171.814,140.000 168.748 C 140.000 166.334,140.548 166.522,132.480 166.180 C 124.654 165.849,124.400 165.736,124.400 162.591 C 124.400 161.694,124.184 160.744,123.920 160.480 C 123.439 159.999,99.258 159.798,98.100 160.265 M120.400 173.400 L 120.400 176.400 128.190 176.400 L 135.980 176.400 136.090 182.700 L 136.200 189.000 139.100 189.118 L 142.000 189.235 142.000 203.218 L 142.000 217.200 139.000 217.200 L 136.000 217.200 136.000 221.791 L 136.000 226.383 128.300 226.491 L 120.600 226.600 120.483 229.700 L 120.366 232.800 111.000 232.800 L 101.634 232.800 101.517 229.700 L 101.400 226.600 95.313 226.490 L 89.226 226.379 89.113 221.890 L 89.000 217.400 84.300 217.287 L 79.600 217.175 79.600 201.600 L 79.600 186.025 84.300 185.913 L 89.000 185.800 89.113 181.100 L 89.225 176.400 95.413 176.400 L 101.600 176.400 101.600 173.400 L 101.600 170.400 111.000 170.400 L 120.400 170.400 120.400 173.400 " stroke="none" fill="#040404" fill-rule="evenodd"></path><path id="path4" d="M81.544 118.765 C 80.705 119.444,80.584 119.922,80.459 123.065 C 80.269 127.836,80.658 127.600,72.980 127.600 C 65.109 127.600,65.045 127.634,64.708 132.000 L 64.600 133.400 59.800 133.700 C 52.367 134.164,52.400 134.139,52.400 139.346 C 52.400 142.779,52.088 143.200,49.549 143.200 C 46.331 143.200,46.000 143.981,46.000 151.574 C 46.000 159.052,46.149 158.800,41.720 158.800 C 36.941 158.800,36.800 158.986,36.800 165.320 C 36.800 170.913,36.668 171.200,34.102 171.200 C 32.783 171.200,32.123 171.440,31.367 172.197 L 30.370 173.194 30.606 201.697 L 30.842 230.200 31.844 231.100 C 32.557 231.741,33.344 232.000,34.580 232.000 C 36.815 232.000,36.800 231.948,36.800 239.571 C 36.800 247.413,36.728 247.304,42.140 247.600 L 45.800 247.800 46.000 254.687 C 46.234 262.758,46.287 262.873,49.910 263.196 L 52.200 263.400 52.404 265.690 C 52.715 269.181,53.036 269.363,59.313 269.600 L 64.600 269.800 64.800 273.537 C 65.082 278.812,65.063 278.800,73.071 278.800 C 80.448 278.800,80.800 278.925,80.800 281.552 C 80.800 285.058,78.387 284.800,111.145 284.800 L 140.027 284.800 140.853 283.400 C 141.569 282.187,141.884 282.000,143.213 282.000 C 145.392 282.000,146.653 281.417,147.271 280.122 C 147.789 279.039,147.934 278.993,151.464 278.800 C 156.476 278.526,156.800 278.211,156.800 273.618 C 156.800 269.289,156.886 269.200,161.100 269.200 L 164.439 269.200 168.420 265.220 C 172.297 261.342,172.400 261.192,172.400 259.414 C 172.400 257.801,172.545 257.500,173.640 256.834 C 174.322 256.419,175.210 255.538,175.612 254.876 C 176.015 254.213,176.690 253.562,177.112 253.428 C 178.486 252.992,178.800 251.435,178.800 245.061 C 178.800 238.139,178.855 238.000,181.618 238.000 C 184.544 238.000,184.800 237.481,184.800 231.549 C 184.800 225.503,184.730 225.600,189.098 225.600 C 193.234 225.600,194.400 224.786,194.400 221.898 C 194.400 220.942,194.616 219.944,194.880 219.680 C 195.590 218.970,242.222 218.988,242.660 219.698 C 242.830 219.971,242.914 230.032,242.847 242.056 C 242.707 267.498,242.540 266.381,246.491 266.394 C 248.118 266.399,248.476 266.553,249.063 267.500 C 250.353 269.584,250.428 269.600,258.850 269.600 C 266.917 269.600,268.630 269.350,269.071 268.106 C 269.626 266.542,270.493 266.000,272.439 266.000 C 275.777 266.000,275.600 267.331,275.600 242.191 C 275.600 225.589,275.718 220.042,276.080 219.680 C 276.766 218.994,301.234 218.994,301.920 219.680 C 302.282 220.042,302.400 225.684,302.400 242.618 C 302.400 268.229,302.134 266.400,305.864 266.400 C 307.738 266.400,307.928 266.496,308.838 267.900 L 309.810 269.400 323.063 269.400 C 337.150 269.400,338.000 269.283,338.000 267.352 C 338.000 266.548,339.358 266.000,341.351 266.000 C 344.558 266.000,344.400 267.231,344.400 242.191 C 344.400 225.589,344.518 220.042,344.880 219.680 C 345.234 219.326,348.762 219.200,358.271 219.200 L 371.182 219.200 371.829 218.212 C 372.913 216.557,372.921 179.640,371.838 178.442 L 371.076 177.600 283.218 177.600 C 215.417 177.600,195.250 177.490,194.880 177.120 C 194.616 176.856,194.400 175.858,194.400 174.902 C 194.400 172.014,193.234 171.200,189.098 171.200 C 185.192 171.200,184.800 170.943,184.800 168.382 C 184.800 166.004,183.978 165.200,181.549 165.200 C 178.797 165.200,178.800 165.210,178.800 156.294 C 178.800 147.940,178.634 147.021,177.008 146.403 C 176.489 146.206,175.824 145.541,175.529 144.926 C 175.234 144.311,174.489 143.566,173.873 143.270 C 173.257 142.975,172.568 142.328,172.342 141.833 C 172.117 141.338,171.396 140.615,170.740 140.228 C 170.085 139.841,169.360 139.111,169.130 138.606 C 168.900 138.101,168.290 137.496,167.775 137.261 C 167.260 137.027,166.558 136.292,166.215 135.629 C 165.334 133.926,164.482 133.600,160.906 133.600 C 157.208 133.600,156.800 133.320,156.800 130.782 C 156.800 128.036,156.125 127.600,151.878 127.600 C 148.536 127.600,148.395 127.563,147.737 126.500 C 146.676 124.786,145.989 124.400,144.004 124.400 C 141.713 124.400,141.200 123.907,141.200 121.702 C 141.200 120.390,140.959 119.723,140.218 118.982 L 139.236 118.000 110.862 118.000 C 83.522 118.000,82.454 118.028,81.544 118.765 M139.986 119.974 C 140.214 120.399,140.400 121.420,140.400 122.242 C 140.400 124.374,141.304 125.200,143.635 125.200 C 145.338 125.200,145.644 125.341,146.453 126.500 C 147.744 128.348,147.847 128.387,151.471 128.394 C 155.385 128.401,156.000 128.813,156.000 131.429 C 156.000 134.196,156.864 134.800,160.825 134.800 L 164.050 134.800 170.900 141.677 L 177.751 148.555 177.643 156.183 C 177.515 165.320,177.757 166.000,181.149 166.000 C 183.513 166.000,184.000 166.481,184.000 168.818 C 184.000 171.607,184.813 172.153,189.340 172.400 L 193.000 172.600 193.108 174.000 C 193.276 176.174,193.548 177.091,194.229 177.772 C 194.796 178.339,203.403 178.400,282.600 178.400 C 361.833 178.400,370.404 178.461,370.971 179.029 C 371.925 179.982,371.925 216.818,370.971 217.771 C 370.426 218.317,368.651 218.400,357.600 218.400 L 344.858 218.400 344.029 219.454 C 343.213 220.491,343.200 220.858,343.200 242.374 C 343.200 266.442,343.342 265.200,340.596 265.200 C 338.807 265.200,338.105 265.617,337.063 267.300 L 336.382 268.400 323.423 268.400 L 310.465 268.400 309.625 267.040 C 308.660 265.480,308.117 265.200,306.047 265.200 C 303.483 265.200,303.600 266.290,303.600 242.374 C 303.600 220.858,303.587 220.491,302.771 219.454 L 301.942 218.400 289.102 218.400 C 277.717 218.400,276.180 218.475,275.531 219.062 C 274.840 219.688,274.800 220.918,274.800 241.688 C 274.800 266.296,274.930 265.200,272.005 265.200 C 270.191 265.200,269.938 265.325,268.752 266.800 L 267.466 268.400 259.400 268.400 L 251.334 268.400 250.048 266.800 C 248.873 265.338,248.598 265.200,246.861 265.200 C 243.816 265.200,244.000 266.690,244.000 242.051 C 244.000 221.966,243.937 219.794,243.338 219.131 C 242.711 218.438,241.422 218.400,218.767 218.400 L 194.858 218.400 194.029 219.454 C 193.492 220.137,193.200 221.094,193.200 222.174 C 193.200 224.535,192.760 224.800,188.851 224.800 C 184.026 224.800,184.000 224.834,184.000 231.182 C 184.000 236.977,183.894 237.200,181.136 237.200 C 177.838 237.200,177.600 237.748,177.600 245.326 L 177.600 251.702 174.600 254.587 C 171.813 257.268,171.600 257.591,171.600 259.131 C 171.600 260.693,171.378 261.012,167.795 264.595 L 163.990 268.400 160.726 268.400 C 156.268 268.400,156.000 268.671,156.000 273.182 C 156.000 277.515,155.917 277.600,151.674 277.600 L 148.308 277.600 146.845 279.200 C 145.575 280.589,145.157 280.800,143.673 280.800 C 141.983 280.800,141.509 281.105,139.684 283.362 C 139.008 284.199,82.912 284.352,82.080 283.520 C 81.816 283.256,81.600 282.235,81.600 281.251 C 81.600 278.140,81.267 278.000,73.870 278.000 C 65.878 278.000,66.000 278.072,66.000 273.338 C 66.000 268.538,65.818 268.400,59.480 268.400 C 53.924 268.400,53.600 268.257,53.600 265.809 C 53.600 263.344,52.744 262.400,50.509 262.400 C 47.325 262.400,47.200 262.104,47.200 254.567 L 47.200 248.058 46.146 247.229 C 45.271 246.541,44.525 246.400,41.760 246.400 C 37.364 246.400,37.403 246.475,37.764 238.724 L 38.040 232.804 37.038 231.802 C 36.276 231.040,35.620 230.800,34.298 230.800 C 31.420 230.800,31.600 232.741,31.600 201.651 C 31.600 169.670,31.344 172.000,34.853 172.000 C 37.795 172.000,38.165 171.194,37.799 165.584 C 37.420 159.779,37.555 159.600,42.330 159.600 C 47.317 159.600,47.200 159.791,47.200 151.618 C 47.200 144.064,47.224 144.000,50.080 144.000 C 53.031 144.000,53.600 143.205,53.600 139.080 C 53.600 134.748,53.530 134.800,59.354 134.800 C 65.160 134.800,66.000 134.347,66.000 131.210 C 66.000 128.438,66.102 128.400,73.480 128.400 C 81.636 128.400,81.600 128.422,81.600 123.480 C 81.600 121.431,81.784 119.976,82.080 119.680 C 83.030 118.730,139.474 119.017,139.986 119.974 M97.023 160.089 C 96.680 160.578,96.400 161.712,96.400 162.609 C 96.400 165.126,96.193 165.200,89.174 165.200 C 81.581 165.200,80.800 165.531,80.800 168.749 C 80.800 171.113,80.319 171.600,77.982 171.600 C 75.604 171.600,74.800 172.422,74.800 174.851 C 74.800 177.338,74.390 177.600,70.502 177.600 C 67.491 177.600,67.067 177.696,66.182 178.582 L 65.200 179.564 65.200 201.493 C 65.200 227.450,64.748 225.200,69.961 225.200 C 74.169 225.200,74.800 225.632,74.800 228.509 C 74.800 230.744,75.744 231.600,78.209 231.600 C 80.271 231.600,80.800 232.138,80.800 234.236 C 80.800 237.549,81.298 237.770,89.264 238.000 L 96.200 238.200 96.400 241.860 C 96.714 247.605,95.606 247.200,111.000 247.200 C 126.278 247.200,125.200 247.568,125.200 242.349 C 125.200 237.832,124.915 238.000,132.591 238.000 C 140.338 238.000,140.800 237.820,140.800 234.806 C 140.800 231.986,141.349 231.600,145.359 231.600 C 150.146 231.600,150.400 231.265,150.400 224.954 C 150.400 219.519,150.546 219.200,153.036 219.200 C 156.528 219.200,156.400 219.786,156.505 203.340 C 156.611 186.695,156.714 187.200,153.218 187.200 C 150.441 187.200,150.400 187.093,150.400 179.809 C 150.400 171.502,150.457 171.600,145.639 171.600 C 141.431 171.600,140.800 171.168,140.800 168.291 C 140.800 165.390,140.290 165.200,132.525 165.200 C 125.199 165.200,125.200 165.200,125.200 162.055 C 125.200 159.130,125.555 159.200,110.794 159.200 C 97.660 159.200,97.645 159.201,97.023 160.089 M123.920 160.480 C 124.184 160.744,124.400 161.694,124.400 162.591 C 124.400 165.736,124.654 165.849,132.480 166.180 C 140.548 166.522,140.000 166.334,140.000 168.748 C 140.000 171.814,140.830 172.400,145.173 172.400 C 149.451 172.400,149.084 171.732,149.441 180.175 C 149.760 187.737,149.822 187.874,153.003 188.074 L 155.000 188.200 155.330 191.674 C 155.512 193.585,155.512 200.245,155.330 206.474 L 155.000 217.800 152.733 217.919 C 149.554 218.086,149.437 218.313,149.200 224.759 L 149.000 230.200 145.112 230.400 C 140.444 230.640,140.007 230.949,139.651 234.263 L 139.400 236.600 132.319 236.800 C 123.843 237.039,124.267 236.779,124.001 241.919 L 123.800 245.800 111.027 245.906 C 96.353 246.027,97.615 246.429,97.606 241.631 C 97.597 236.673,97.814 236.800,89.381 236.800 C 81.659 236.800,82.000 236.940,82.000 233.767 C 82.000 231.392,81.008 230.400,78.633 230.400 C 75.889 230.400,75.600 230.174,75.600 228.027 C 75.600 225.095,74.678 224.463,70.192 224.317 L 66.600 224.200 66.600 201.600 L 66.600 179.000 70.337 178.800 C 74.729 178.565,75.600 177.942,75.600 175.036 C 75.600 172.892,76.126 172.400,78.418 172.400 C 80.816 172.400,81.710 171.466,81.992 168.667 L 82.200 166.600 88.578 166.324 C 97.395 165.942,97.600 165.844,97.600 162.007 C 97.600 161.149,97.821 160.377,98.100 160.265 C 99.258 159.798,123.439 159.999,123.920 160.480 " stroke="none" fill="#3c7c5c" fill-rule="evenodd"></path></g></svg>